<?xml version="1.0" encoding="iso-8859-1"?>
<!-- Generator: Adobe Illustrator 19.0.0, SVG Export Plug-In . SVG Version: 6.00 Build 0)  -->
<svg version="1.1" id="Layer_1" xmlns="http://www.w3.org/2000/svg" xmlns:xlink="http://www.w3.org/1999/xlink" x="0px" y="0px"
	 viewBox="0 0 512 512" style="enable-background:new 0 0 512 512;" xml:space="preserve">
<g>
	<g>
		<path d="M440.158,257.596l-358.4-256c-2.603-1.869-6.016-2.108-8.866-0.657c-2.842,1.468-4.625,4.395-4.625,7.595v358.4
			c0,4.719,3.814,8.533,8.533,8.533h358.4c4.719,0,8.533-3.814,8.533-8.533v-102.4C443.733,261.777,442.402,259.192,440.158,257.596
			z M426.667,358.4H85.333V25.114L426.667,268.92V358.4z"/>
	</g>
</g>
<g>
	<g>
		<path d="M503.467,392.534H8.533c-4.719,0-8.533,3.814-8.533,8.533v102.4C0,508.186,3.815,512,8.533,512h494.933
			c4.719,0,8.533-3.814,8.533-8.533v-102.4C512,396.348,508.186,392.534,503.467,392.534z M494.933,494.934H17.067V409.6h25.6
			l-0.009,17.067c0,4.71,3.814,8.533,8.533,8.533c4.71,0,8.533-3.814,8.533-8.533l0.009-17.067h34.133v34.133
			c0,4.719,3.814,8.533,8.533,8.533s8.533-3.814,8.533-8.533V409.6h34.133v17.067c0,4.719,3.814,8.533,8.533,8.533
			c4.719,0,8.533-3.814,8.533-8.533V409.6h34.133v34.133c0,4.719,3.814,8.533,8.533,8.533s8.533-3.814,8.533-8.533V409.6h34.133
			v17.067c0,4.719,3.814,8.533,8.533,8.533c4.719,0,8.533-3.814,8.533-8.533V409.6h34.133v34.133c0,4.719,3.814,8.533,8.533,8.533
			s8.533-3.814,8.533-8.533V409.6h34.133v17.067c0,4.719,3.814,8.533,8.533,8.533s8.533-3.814,8.533-8.533V409.6h34.133v34.133
			c0,4.719,3.814,8.533,8.533,8.533s8.533-3.814,8.533-8.533V409.6h34.15l-0.009,17.067c0,4.71,3.814,8.533,8.533,8.533
			c4.71,0,8.533-3.814,8.533-8.533l0.009-17.067h25.583V494.934z"/>
	</g>
</g>
<g>
</g>
<g>
</g>
<g>
</g>
<g>
</g>
<g>
</g>
<g>
</g>
<g>
</g>
<g>
</g>
<g>
</g>
<g>
</g>
<g>
</g>
<g>
</g>
<g>
</g>
<g>
</g>
<g>
</g>
</svg>
