<?xml version="1.0" encoding="utf-8"?>
<!-- Svg Vector Icons : http://www.onlinewebfonts.com/icon -->
<!DOCTYPE svg PUBLIC "-//W3C//DTD SVG 1.1//EN" "http://www.w3.org/Graphics/SVG/1.1/DTD/svg11.dtd">
<svg version="1.1" xmlns="http://www.w3.org/2000/svg" xmlns:xlink="http://www.w3.org/1999/xlink" x="0px" y="0px" viewBox="0 0 1000 1000" enable-background="new 0 0 1000 1000" xml:space="preserve">
<metadata> Svg Vector Icons : http://www.onlinewebfonts.com/icon </metadata>
<g><g transform="matrix(1 0 0 -1 0 1920)"><path d="M160.8,948.8v150.8h16.6L66.2,1438.8H10v150.8h115L424.6,1806v85.2h150.8V1806l300.8-216.4H990v-150.8h-56.5l-110.8-339.2h16.6V948.8H688.5v37.7H311.5v-37.7H160.8z M462.3,1778.1h75.4v75.4h-75.4V1778.1z M311.5,1061.9h376.9v37.7h55l110.8,339.2h-15.1v84.4l-301.5,217.1h-75.4l-301.5-217.9v-83.7h-15.5l111.2-339.2h55V1061.9z M47.7,1476.5h75.4v75.4H47.7V1476.5z M876.9,1476.5h75.4v75.4h-75.4V1476.5z M198.5,986.5h75.4v75.4h-75.4V986.5z M726.2,986.5h75.4v75.4h-75.4V986.5z"/></g></g>
</svg>