<?xml version="1.0" encoding="iso-8859-1"?>
<!-- Generator: Adobe Illustrator 18.0.0, SVG Export Plug-In . SVG Version: 6.00 Build 0)  -->
<!DOCTYPE svg PUBLIC "-//W3C//DTD SVG 1.1//EN" "http://www.w3.org/Graphics/SVG/1.1/DTD/svg11.dtd">
<svg version="1.1" id="Capa_1" xmlns="http://www.w3.org/2000/svg" xmlns:xlink="http://www.w3.org/1999/xlink" x="0px" y="0px"
	 viewBox="0 0 60 60" style="enable-background:new 0 0 60 60;" xml:space="preserve">
<path d="M19,0h-2H0v17v2v41h16V19h3v-3h41V0H19z M14,23h-3c-0.553,0-1,0.447-1,1s0.447,1,1,1h3v4H8c-0.553,0-1,0.447-1,1
	s0.447,1,1,1h6v4h-3c-0.553,0-1,0.447-1,1s0.447,1,1,1h3v4H8c-0.553,0-1,0.447-1,1s0.447,1,1,1h6v4h-3c-0.553,0-1,0.447-1,1
	s0.447,1,1,1h3v4H8c-0.553,0-1,0.447-1,1s0.447,1,1,1h6v3H2V19h12V23z M17,17h-1H2V2h15v14V17z M58,14h-3V8c0-0.553-0.447-1-1-1
	s-1,0.447-1,1v6h-4v-3c0-0.553-0.447-1-1-1s-1,0.447-1,1v3h-4V8c0-0.553-0.447-1-1-1s-1,0.447-1,1v6h-4v-3c0-0.553-0.447-1-1-1
	s-1,0.447-1,1v3h-4V8c0-0.553-0.447-1-1-1s-1,0.447-1,1v6h-4v-3c0-0.553-0.447-1-1-1s-1,0.447-1,1v3h-4V2h39V14z"/>
<g>
</g>
<g>
</g>
<g>
</g>
<g>
</g>
<g>
</g>
<g>
</g>
<g>
</g>
<g>
</g>
<g>
</g>
<g>
</g>
<g>
</g>
<g>
</g>
<g>
</g>
<g>
</g>
<g>
</g>
</svg>
