<?xml version="1.0" encoding="UTF-8"?><svg xmlns="http://www.w3.org/2000/svg" xmlns:xlink="http://www.w3.org/1999/xlink" width="30px" height="9px" viewBox="0 0 30 9" version="1.1"><title>Slider 2</title><g id="Page-1" stroke="none" stroke-width="1" fill="none" fill-rule="evenodd"><g id="Icons" transform="translate(-254.000000, -331.000000)" fill="#000"><path d="M272.654 331a4.156 4.156 0 0 0-4.154 4.152 4.156 4.156 0 0 0 4.154 4.15 4.156 4.156 0 0 0 4.152-4.15 4.155 4.155 0 0 0-4.152-4.152zm0 7.226a3.08 3.08 0 0 1-3.078-3.074 3.081 3.081 0 0 1 3.078-3.076 3.08 3.08 0 0 1 3.076 3.076 3.08 3.08 0 0 1-3.076 3.074zm10.797-3.613a.54.54 0 0 1 .539.539.54.54 0 0 1-.539.537h-5.4a.537.537 0 1 1 0-1.076h5.4zm-16.199 0a.537.537 0 1 1 0 1.076h-12.719a.539.539 0 0 1 0-1.076h12.719z" id="Slider-2"/></g></g><metadata><rdf:RDF xmlns:rdf="http://www.w3.org/1999/02/22-rdf-syntax-ns#" xmlns:rdfs="http://www.w3.org/2000/01/rdf-schema#" xmlns:dc="http://purl.org/dc/elements/1.1/"><rdf:Description about="https://iconscout.com/legal#licenses" dc:title="slider" dc:description="slider" dc:publisher="Iconscout" dc:date="2017-09-14" dc:format="image/svg+xml" dc:language="en"><dc:creator><rdf:Bag><rdf:li>Mirko Monti</rdf:li></rdf:Bag></dc:creator></rdf:Description></rdf:RDF></metadata></svg>