<?xml version="1.0" encoding="iso-8859-1"?>
<!-- Generator: Adobe Illustrator 18.1.1, SVG Export Plug-In . SVG Version: 6.00 Build 0)  -->
<svg version="1.1" id="Capa_1" xmlns="http://www.w3.org/2000/svg" xmlns:xlink="http://www.w3.org/1999/xlink" x="0px" y="0px"
	 viewBox="0 0 32.305 32.305" style="enable-background:new 0 0 32.305 32.305;" xml:space="preserve">
<g>
	<rect x="32.293" y="6.069" width="0.012" height="5.152"/>
	<path d="M32.305,11.222V6.069V11.222z"/>
	<path d="M32.293,11.222c0-1.686,0-3.447,0-5.152c0.006,0.035,0.012,0.059,0.012,0.094c-0.004,0.783-0.004,4.467-0.004,5.027
		C32.301,11.204,32.293,11.206,32.293,11.222z"/>
	<path d="M32.293,30.126c0,0,0.135,0.514-0.645,0.518c-0.785-0.004-4.467-0.004-5.029-0.004c-0.553,0.004-0.545-0.43-0.545-0.43
		c0-0.736,0-14.467,0-18.475c-6.301,0-14.43,0-16.116-0.004c-0.805,0.004-1.326,0-1.326,0s0,1.922,0,3.135
		c0,1.209-0.91,0.295-0.91,0.295S0.93,9.917,0.212,9.202c-0.511-0.52,0.062-1.01,0.062-1.01l7.279-6.148c0,0,0.863-0.91,0.863,0.078
		c-0.005,0.996,0,3.393,0,3.393s0.583,0,1.477,0.002c1.756-0.002,9.907-0.002,16.182,0c0-0.002,0-0.002,0-0.006h5.752h0.08
		c0.141,0.012,0.357,0.109,0.387,0.559c0,1.705,0,3.467,0,5.152C32.293,15.397,32.293,29.341,32.293,30.126z"/>
	<g>
	</g>
	<g>
	</g>
	<g>
	</g>
	<g>
	</g>
	<g>
	</g>
	<g>
	</g>
	<g>
	</g>
	<g>
	</g>
	<g>
	</g>
	<g>
	</g>
	<g>
	</g>
	<g>
	</g>
	<g>
	</g>
	<g>
	</g>
	<g>
	</g>
</g>
<g>
</g>
<g>
</g>
<g>
</g>
<g>
</g>
<g>
</g>
<g>
</g>
<g>
</g>
<g>
</g>
<g>
</g>
<g>
</g>
<g>
</g>
<g>
</g>
<g>
</g>
<g>
</g>
<g>
</g>
</svg>
